<?xml version="1.0" standalone="no"?>
<!DOCTYPE svg PUBLIC "-//W3C//DTD SVG 20010904//EN"
 "http://www.w3.org/TR/2001/REC-SVG-20010904/DTD/svg10.dtd">
<svg version="1.0" xmlns="http://www.w3.org/2000/svg"
 width="2048.000000pt" height="2048.000000pt" viewBox="0 0 2048.000000 2048.000000"
 preserveAspectRatio="xMidYMid meet">
<metadata>
Created by potrace 1.14, written by Peter Selinger 2001-2017
</metadata>
<g transform="translate(0.000000,2048.000000) scale(0.100000,-0.100000)"
fill="#000000" stroke="none">
<path d="M10213 20466 c-4 -7 -30 -38 -58 -68 -27 -30 -63 -70 -80 -89 -25
-29 -97 -109 -246 -274 -15 -16 -36 -39 -46 -51 -10 -12 -52 -58 -93 -104 -41
-46 -83 -92 -93 -104 -27 -31 -139 -157 -157 -176 -8 -9 -51 -56 -95 -106 -44
-49 -92 -102 -107 -119 -25 -27 -27 -36 -23 -80 3 -27 13 -111 21 -185 21
-192 23 -209 29 -265 4 -27 8 -67 10 -88 2 -21 6 -55 9 -75 3 -20 8 -66 11
-102 3 -36 8 -76 10 -90 3 -14 7 -54 10 -90 3 -36 7 -76 10 -90 2 -14 7 -54
10 -90 3 -36 8 -76 10 -90 2 -14 7 -54 10 -89 4 -36 8 -79 10 -95 2 -17 7 -56
10 -86 3 -30 8 -72 11 -92 3 -21 7 -57 9 -80 2 -24 6 -63 9 -88 3 -25 8 -65
10 -90 3 -25 7 -66 10 -92 3 -27 8 -68 11 -93 3 -25 7 -65 10 -90 3 -25 7 -64
10 -87 8 -70 15 -130 19 -178 8 -79 17 -154 21 -185 2 -16 7 -59 10 -95 4 -36
8 -76 11 -90 2 -14 6 -56 10 -95 3 -38 7 -77 9 -85 2 -8 7 -46 10 -85 4 -38 8
-81 10 -95 2 -14 7 -50 10 -80 3 -30 7 -71 10 -90 5 -38 15 -128 20 -175 1
-16 8 -77 14 -135 7 -58 14 -125 17 -150 2 -25 6 -58 9 -75 2 -16 7 -59 10
-95 3 -36 8 -76 10 -90 2 -14 7 -54 10 -90 6 -66 13 -124 21 -171 4 -26 2 -27
-54 -33 -31 -4 -114 -17 -185 -28 -70 -12 -130 -19 -132 -16 -6 6 -12 32 -20
93 -4 22 -15 90 -25 150 -10 61 -21 128 -25 150 -3 22 -17 108 -31 190 -15 83
-28 166 -30 185 -3 19 -11 71 -19 115 -7 44 -17 98 -20 120 -13 81 -17 102
-35 210 -10 61 -21 128 -25 150 -3 23 -7 50 -9 60 -4 21 -14 87 -22 140 -2 17
-9 53 -14 80 -5 28 -11 66 -14 85 -3 19 -19 118 -36 220 -17 102 -33 201 -36
220 -3 19 -7 42 -9 50 -2 8 -7 35 -10 60 -3 25 -12 81 -20 125 -8 44 -17 98
-20 120 -3 23 -8 52 -10 65 -7 36 -26 149 -31 190 -2 19 -7 46 -9 60 -3 14
-10 54 -15 90 -6 36 -13 79 -16 95 -2 17 -13 80 -24 140 -10 61 -21 128 -25
150 -3 22 -12 78 -20 125 -7 47 -17 103 -20 125 -4 22 -8 45 -9 50 -1 6 -11
63 -21 128 -10 64 -21 117 -24 117 -3 0 -25 -24 -48 -53 -24 -28 -68 -83 -99
-122 -31 -38 -60 -72 -63 -75 -4 -3 -14 -14 -22 -26 -8 -11 -31 -41 -51 -65
-20 -24 -97 -118 -171 -208 l-133 -165 153 -610 c84 -336 155 -620 157 -631
10 -40 15 -61 31 -125 8 -36 17 -72 19 -80 2 -8 90 -361 196 -785 106 -423
194 -777 195 -785 2 -8 15 -61 29 -118 15 -57 26 -107 26 -112 0 -4 -33 -18
-72 -29 -103 -30 -364 -126 -488 -178 -108 -46 -381 -180 -436 -214 l-32 -19
-197 337 c-109 186 -205 349 -214 363 -8 14 -21 34 -27 45 -27 50 -55 97 -93
160 -23 37 -41 68 -41 70 0 2 -18 33 -41 70 -22 37 -49 82 -58 99 -10 17 -157
268 -326 556 -476 811 -506 863 -525 896 -115 200 -175 294 -189 298 -9 3 -47
7 -86 11 -38 3 -81 8 -95 10 -14 2 -56 7 -95 10 -38 3 -81 8 -95 10 -14 2 -51
7 -83 10 -79 7 -168 17 -277 30 -129 16 -172 16 -164 3 16 -25 118 -173 127
-183 7 -8 752 -1073 885 -1265 25 -36 53 -75 61 -86 9 -12 22 -30 29 -40 7
-11 85 -122 174 -249 88 -126 185 -266 216 -310 31 -44 69 -98 85 -120 16 -22
172 -245 347 -494 l317 -455 -76 -54 c-42 -30 -111 -82 -154 -115 -42 -33 -79
-58 -81 -56 -1 2 -56 71 -122 154 -65 82 -127 159 -136 170 -9 11 -154 193
-323 405 -168 212 -313 394 -323 405 -35 42 -578 724 -602 755 -14 18 -30 38
-36 44 -6 6 -26 31 -45 56 -19 25 -42 54 -51 65 -19 23 -229 284 -269 336 -15
19 -67 84 -115 145 -49 60 -120 150 -159 198 -38 49 -103 129 -143 180 -82
101 -78 96 -232 291 -62 77 -115 143 -119 147 -3 4 -40 10 -81 13 -120 8 -248
15 -340 20 -47 3 -119 7 -160 10 -41 2 -115 7 -165 10 -110 7 -204 13 -310 20
-44 3 -118 7 -165 10 -47 2 -134 7 -193 10 l-108 7 6 -88 c6 -93 10 -161 20
-354 3 -63 8 -140 10 -170 2 -30 7 -116 10 -190 4 -74 8 -155 10 -180 1 -25 5
-112 10 -195 4 -82 9 -159 10 -170 1 -11 3 -54 4 -96 l1 -75 83 -67 c79 -65
425 -341 502 -402 21 -16 68 -54 104 -83 36 -30 80 -64 96 -78 200 -159 1569
-1253 1595 -1274 19 -16 250 -200 512 -410 l478 -381 -49 -62 c-27 -34 -78
-103 -113 -153 l-64 -91 -51 36 c-176 127 -849 610 -872 626 -16 11 -186 133
-378 271 -191 137 -523 376 -738 530 -214 154 -418 300 -452 325 -33 24 -71
51 -83 59 -12 8 -32 22 -44 31 -45 34 -524 377 -550 394 l-27 18 5 -24 c3 -13
8 -53 11 -89 3 -36 8 -78 10 -95 2 -16 7 -61 10 -100 4 -38 8 -88 10 -110 7
-71 16 -159 20 -190 3 -16 7 -57 10 -90 5 -58 12 -125 19 -193 2 -19 7 -37 12
-41 18 -16 596 -361 605 -361 5 0 9 -4 9 -9 0 -5 8 -11 17 -15 10 -3 32 -14
48 -24 31 -20 540 -326 1572 -946 l612 -368 -84 -167 c-130 -259 -238 -528
-306 -759 -30 -102 -35 -113 -54 -107 -30 8 -342 90 -575 150 -113 30 -239 63
-280 74 -41 11 -147 38 -235 61 -88 23 -225 59 -305 79 -80 21 -242 63 -360
94 -118 31 -242 63 -275 72 -33 9 -130 34 -215 56 -85 22 -207 53 -270 70 -63
17 -155 41 -205 54 -49 13 -153 40 -229 60 -77 20 -150 39 -161 41 -12 2 -40
10 -62 18 -36 13 -43 12 -64 -2 -22 -15 -206 -160 -254 -201 -11 -9 -76 -61
-145 -116 -69 -55 -127 -102 -130 -105 -3 -3 -39 -32 -80 -65 -41 -33 -80 -65
-86 -71 -8 -7 43 -19 175 -42 102 -18 199 -35 216 -38 192 -35 255 -46 280
-49 17 -2 41 -7 55 -10 14 -2 68 -12 120 -21 52 -9 100 -17 105 -19 35 -7 287
-52 338 -59 20 -4 54 -9 75 -12 20 -3 45 -7 54 -10 10 -3 28 -7 40 -9 116 -20
318 -55 338 -59 47 -9 215 -38 245 -42 17 -3 50 -9 75 -14 25 -5 101 -19 170
-30 69 -12 184 -32 255 -45 141 -26 177 -32 228 -40 17 -3 55 -10 82 -15 28
-6 64 -12 80 -14 17 -2 68 -11 115 -19 133 -24 142 -26 380 -68 124 -22 236
-42 250 -45 14 -2 43 -7 65 -10 74 -11 110 -21 108 -30 0 -5 -11 -83 -23 -174
-22 -163 -30 -197 -47 -193 -4 1 -37 4 -73 7 -36 4 -76 9 -90 11 -14 2 -52 7
-85 10 -33 3 -76 8 -95 10 -19 2 -60 7 -90 10 -30 3 -89 10 -130 15 -41 5
-104 12 -140 15 -36 3 -72 8 -80 10 -8 2 -46 6 -85 10 -38 3 -81 8 -95 10 -14
3 -52 7 -85 10 -32 3 -73 7 -90 10 -16 2 -57 7 -90 10 -33 3 -96 10 -140 15
-44 5 -107 12 -140 15 -33 4 -70 8 -83 10 -13 2 -53 7 -90 10 -37 3 -78 8 -92
10 -14 3 -52 7 -85 10 -33 3 -71 8 -85 10 -14 3 -54 7 -90 10 -36 3 -76 8 -90
10 -14 2 -54 7 -90 10 -36 3 -76 8 -90 10 -14 2 -50 7 -80 10 -76 8 -150 16
-180 20 -14 2 -56 7 -95 10 -38 4 -81 8 -95 10 -33 4 -104 12 -220 25 -52 6
-113 13 -135 16 -22 2 -58 6 -80 8 -22 2 -105 11 -185 20 -140 16 -179 21
-265 31 -22 3 -62 7 -90 10 -27 3 -68 7 -90 10 -22 3 -62 7 -90 10 -86 8 -159
17 -185 21 -14 2 -55 6 -92 10 -74 7 -75 6 -155 -66 -28 -25 -65 -58 -84 -75
-83 -73 -139 -122 -203 -179 -38 -34 -77 -68 -86 -76 -27 -24 -161 -143 -186
-165 -12 -11 -33 -29 -45 -40 -13 -12 -49 -43 -79 -69 -30 -27 -86 -76 -124
-110 -241 -212 -246 -216 -227 -234 9 -9 55 -51 101 -92 47 -41 102 -91 124
-110 21 -19 44 -39 50 -45 41 -37 207 -186 236 -212 19 -17 44 -40 56 -50 11
-10 56 -50 100 -89 43 -40 162 -147 264 -238 l185 -166 60 6 c33 3 67 7 75 9
8 1 51 6 94 10 43 4 86 8 95 10 9 1 43 6 76 9 33 3 76 8 95 11 19 3 62 7 94
10 51 4 118 12 266 30 19 2 64 7 100 10 36 3 76 8 90 10 14 3 50 7 80 10 30 3
66 7 80 10 14 2 59 7 100 10 41 3 86 8 100 10 14 3 50 7 80 10 30 3 66 7 80
10 14 2 57 6 95 10 39 3 81 8 95 10 14 2 52 7 85 10 82 8 144 15 185 20 19 2
60 7 90 10 30 3 71 8 90 10 60 7 312 35 370 41 30 3 66 7 80 9 14 2 54 7 90
10 36 3 76 8 90 10 14 2 72 9 129 15 57 6 118 13 135 15 17 2 58 6 91 9 33 4
76 9 96 12 20 2 59 7 85 9 27 3 65 7 84 10 19 3 62 7 95 10 33 3 76 7 95 10
58 8 112 14 175 20 33 3 74 8 90 10 29 4 124 15 175 20 120 12 164 17 179 20
16 3 20 -5 25 -48 3 -29 16 -112 27 -185 12 -73 19 -135 16 -138 -4 -4 -305
-56 -512 -88 -48 -8 -81 -13 -155 -26 -30 -5 -68 -12 -85 -14 -16 -3 -43 -7
-60 -10 -16 -3 -73 -12 -125 -21 -52 -8 -107 -17 -123 -20 -61 -11 -144 -24
-182 -30 -22 -3 -76 -12 -120 -19 -44 -8 -98 -17 -120 -20 -22 -3 -67 -10
-100 -16 -33 -6 -76 -13 -95 -16 -19 -2 -89 -14 -155 -25 -147 -24 -118 -20
-420 -70 -137 -22 -263 -43 -280 -45 -16 -2 -41 -6 -55 -9 -28 -6 -34 -7 -170
-29 -52 -9 -113 -18 -135 -21 -22 -4 -47 -8 -55 -10 -8 -2 -37 -7 -65 -11 -27
-3 -59 -8 -70 -10 -23 -5 -50 -9 -115 -19 -25 -4 -54 -9 -65 -11 -11 -2 -92
-16 -180 -30 -88 -14 -167 -27 -175 -29 -21 -4 -89 -15 -125 -20 -100 -15
-115 -18 -113 -25 3 -7 77 -69 234 -197 49 -40 177 -144 284 -231 l194 -159
516 130 c283 71 523 131 532 133 10 2 26 6 35 8 10 2 56 14 103 26 47 12 92
23 100 25 8 2 143 35 300 74 157 39 294 73 305 76 11 2 155 38 320 80 165 41
309 77 320 80 11 2 174 42 363 89 189 47 346 86 350 86 4 0 27 -60 50 -132 48
-149 99 -286 161 -433 44 -103 178 -376 212 -432 11 -17 16 -33 12 -36 -4 -3
-127 -74 -273 -160 -146 -85 -279 -163 -297 -173 -18 -11 -116 -68 -219 -129
-103 -60 -205 -121 -228 -134 -23 -13 -171 -100 -331 -194 -159 -93 -342 -200
-405 -237 -63 -37 -182 -107 -265 -156 -82 -49 -159 -93 -170 -99 -11 -6 -85
-50 -165 -97 -80 -47 -160 -94 -179 -104 -18 -11 -41 -23 -50 -29 -9 -5 -80
-48 -159 -94 -78 -46 -142 -86 -143 -90 0 -3 -2 -13 -4 -21 -1 -8 -5 -44 -9
-80 -4 -36 -9 -81 -11 -100 -6 -44 -13 -111 -19 -170 -3 -25 -8 -68 -11 -95
-11 -100 -15 -141 -20 -201 -3 -33 -7 -69 -9 -80 -2 -10 -7 -52 -11 -93 -6
-60 -5 -72 7 -65 7 4 186 129 398 278 342 239 438 306 602 421 23 17 187 131
363 254 176 124 340 239 365 256 25 17 205 143 400 280 349 244 425 298 485
339 17 12 32 23 35 26 3 3 13 10 22 15 9 6 90 62 180 125 90 63 192 135 228
159 36 24 78 55 94 68 l28 24 31 -43 c27 -38 88 -121 170 -230 l28 -37 -23
-20 c-13 -11 -219 -176 -458 -366 -239 -191 -451 -360 -470 -375 -19 -15 -120
-96 -225 -180 -104 -83 -199 -159 -210 -168 -11 -10 -51 -41 -89 -71 -38 -29
-78 -61 -90 -72 -11 -10 -228 -183 -481 -384 -522 -416 -476 -380 -696 -557
-92 -73 -184 -146 -205 -163 -88 -69 -400 -318 -406 -324 -4 -4 -10 -45 -13
-91 -3 -47 -7 -114 -10 -150 -3 -36 -8 -117 -11 -180 -3 -63 -7 -135 -9 -160
-2 -25 -7 -101 -10 -170 -3 -69 -8 -145 -10 -170 -3 -25 -7 -94 -10 -155 -3
-60 -8 -132 -10 -160 -2 -27 -7 -103 -11 -167 l-6 -118 73 4 c41 3 126 7 189
11 63 3 144 8 180 10 36 3 110 7 165 10 190 9 350 18 760 41 72 4 136 7 143 7
7 0 126 142 264 316 139 174 255 318 258 321 3 3 18 23 35 45 16 22 32 42 35
45 3 3 33 39 65 80 33 41 65 82 72 90 70 87 87 109 109 135 13 17 74 93 135
170 61 77 118 149 128 160 30 37 496 619 521 652 43 56 364 458 370 463 3 3
75 93 160 200 85 107 160 202 167 210 49 61 128 158 141 175 14 17 134 168
179 225 6 8 23 29 38 47 l26 32 62 -48 c34 -27 103 -77 153 -113 l91 -64 -121
-169 c-212 -296 -556 -775 -663 -922 -56 -79 -103 -145 -103 -148 0 -3 -7 -13
-16 -22 -9 -10 -146 -200 -306 -423 -159 -223 -299 -418 -311 -435 -135 -187
-741 -1032 -752 -1049 -15 -23 -15 -23 12 -20 16 1 57 6 93 9 66 6 111 10 190
19 69 8 139 15 200 21 52 5 122 12 200 20 19 2 62 6 95 10 130 13 111 -4 230
193 59 97 124 206 146 241 21 34 39 65 39 67 0 3 12 23 27 47 27 42 896 1484
917 1522 6 11 119 199 250 417 l238 396 166 -83 c186 -92 253 -122 427 -190
121 -48 357 -127 415 -140 22 -5 29 -11 26 -23 -3 -10 -21 -80 -41 -157 -19
-77 -42 -161 -50 -188 -8 -26 -14 -48 -14 -50 1 -1 -4 -22 -11 -47 -7 -25 -13
-52 -15 -60 -2 -8 -22 -87 -45 -175 -23 -88 -64 -243 -90 -345 -27 -102 -64
-246 -83 -320 -77 -293 -169 -646 -172 -660 -2 -8 -13 -49 -24 -90 -11 -41
-45 -169 -75 -285 -29 -115 -73 -282 -96 -370 -23 -88 -43 -167 -45 -176 -2
-10 -17 -66 -34 -125 -16 -60 -32 -122 -35 -138 -3 -16 -8 -31 -10 -34 -3 -3
11 -26 32 -51 20 -25 42 -53 49 -61 7 -8 119 -148 249 -310 130 -162 239 -296
244 -298 4 -1 10 14 14 35 7 44 11 69 31 178 8 44 16 91 19 105 2 14 7 41 10
60 86 489 106 603 111 635 2 11 10 58 19 105 8 47 17 99 20 115 2 17 9 55 15
85 6 30 13 69 16 85 2 17 7 40 9 51 2 12 7 39 10 60 4 22 13 75 21 119 8 44
17 94 20 110 2 17 7 39 9 50 2 11 7 40 11 65 4 25 9 54 11 65 2 11 8 45 13 75
22 124 79 446 85 475 3 18 11 64 22 135 3 14 18 99 34 190 16 91 32 179 35
195 5 31 11 62 20 105 3 14 7 41 10 60 2 19 27 161 54 315 27 154 52 300 56
325 8 54 13 63 31 56 7 -3 82 -15 166 -26 188 -26 200 -29 194 -39 -3 -4 -8
-39 -11 -78 -3 -38 -7 -78 -9 -89 -2 -10 -7 -53 -11 -94 -4 -41 -8 -82 -10
-90 -2 -9 -6 -47 -10 -85 -7 -85 -13 -138 -20 -185 -2 -19 -7 -60 -10 -90 -3
-30 -8 -71 -10 -90 -2 -19 -7 -60 -10 -90 -7 -61 -13 -117 -20 -170 -3 -19 -7
-60 -10 -90 -3 -30 -8 -71 -10 -90 -2 -19 -7 -57 -10 -85 -9 -83 -15 -138 -20
-175 -2 -19 -7 -64 -10 -100 -3 -36 -8 -76 -10 -90 -2 -14 -7 -54 -10 -90 -3
-36 -7 -76 -10 -90 -2 -14 -7 -52 -10 -85 -7 -72 -15 -139 -20 -180 -2 -16 -7
-55 -10 -85 -3 -30 -8 -71 -10 -90 -2 -19 -7 -60 -10 -90 -3 -30 -8 -71 -10
-90 -3 -19 -7 -62 -11 -95 -3 -33 -7 -71 -9 -85 -2 -14 -7 -53 -10 -88 -4 -35
-8 -71 -10 -80 -1 -9 -6 -53 -10 -96 -4 -43 -8 -86 -10 -95 -1 -9 -6 -47 -10
-84 -3 -37 -8 -77 -10 -88 -2 -11 -7 -50 -10 -87 -3 -37 -8 -85 -10 -107 -3
-22 -7 -58 -10 -80 -3 -22 -7 -65 -10 -95 -3 -30 -10 -89 -15 -130 -5 -41 -12
-102 -15 -135 -4 -33 -8 -71 -10 -85 -2 -14 -7 -54 -10 -90 -4 -36 -8 -78 -11
-95 -12 -98 -15 -168 -8 -174 5 -3 65 -69 133 -146 68 -77 138 -156 155 -175
17 -19 83 -94 146 -165 63 -72 121 -137 130 -146 8 -9 26 -29 40 -45 13 -16
58 -67 99 -114 42 -47 88 -98 102 -115 165 -188 193 -216 204 -202 6 8 47 54
91 103 44 49 98 109 120 134 21 25 44 50 49 56 46 50 164 181 178 198 15 17
121 135 172 190 6 6 46 52 90 101 43 50 86 97 95 106 12 13 59 65 155 174 6 6
20 22 33 37 22 24 22 29 13 109 -5 46 -13 113 -17 149 -3 36 -7 72 -9 80 -2 9
-6 47 -10 84 -3 37 -8 80 -10 95 -1 14 -6 55 -10 91 -3 36 -8 76 -10 90 -2 14
-6 54 -10 90 -3 36 -8 76 -10 90 -3 14 -7 54 -10 90 -3 36 -8 76 -10 90 -2 14
-7 52 -10 85 -3 33 -7 76 -10 95 -2 19 -7 60 -10 90 -3 30 -8 71 -10 90 -3 19
-7 60 -10 90 -3 30 -8 69 -10 85 -3 17 -7 55 -10 86 -2 31 -7 72 -9 90 -3 19
-8 61 -11 94 -3 33 -8 71 -10 85 -2 14 -6 57 -10 95 -3 39 -8 84 -10 100 -2
17 -7 51 -10 78 -6 52 -12 109 -20 177 -3 25 -8 72 -11 105 -3 33 -7 71 -9 85
-3 14 -7 54 -11 90 -3 36 -7 76 -10 90 -2 14 -6 54 -9 90 -3 36 -8 72 -10 80
-2 8 -7 51 -11 95 -3 44 -8 89 -10 100 -2 11 -6 49 -9 85 -4 36 -8 72 -10 80
-2 8 -7 51 -11 95 -3 44 -8 88 -9 97 -2 9 -6 45 -10 80 -3 35 -8 74 -10 88 -2
14 -7 54 -10 90 -3 36 -8 76 -10 90 -2 14 -7 52 -10 85 -11 112 -35 320 -40
348 -4 17 -1 29 7 32 22 8 301 48 337 49 27 1 35 -3 37 -19 9 -72 16 -116 38
-250 14 -82 28 -168 31 -190 4 -22 13 -76 20 -120 8 -44 17 -93 19 -110 9 -58
48 -288 51 -306 2 -9 7 -39 11 -66 3 -26 8 -57 10 -68 4 -18 25 -148 38 -235
3 -19 24 -145 46 -280 23 -135 43 -256 45 -270 2 -14 11 -68 20 -120 9 -52 18
-108 21 -125 2 -16 9 -55 14 -85 5 -30 12 -73 15 -95 3 -22 7 -47 10 -55 4
-15 7 -38 20 -135 4 -27 11 -66 15 -85 5 -19 11 -55 14 -80 7 -49 13 -87 22
-140 4 -19 8 -42 9 -50 1 -8 5 -35 9 -60 4 -25 9 -57 12 -71 4 -28 39 -241 49
-299 3 -19 14 -89 25 -155 11 -66 29 -174 41 -240 11 -66 21 -129 20 -139 0
-25 -7 -32 169 184 78 96 157 193 175 215 18 22 82 101 142 175 l110 135 -43
170 c-59 231 -553 2215 -559 2240 -2 11 -23 94 -45 185 -23 91 -44 172 -46
180 -2 8 -8 35 -15 60 -6 25 -12 52 -14 60 -2 8 -22 88 -44 177 -23 89 -41
166 -41 171 0 5 42 21 93 37 112 33 325 112 467 172 108 46 380 179 436 214
l32 19 25 -42 c14 -24 129 -220 256 -437 127 -216 231 -398 231 -402 0 -5 5
-9 10 -9 6 0 10 -5 10 -10 0 -6 20 -43 44 -83 24 -39 137 -232 251 -427 114
-195 276 -472 360 -615 84 -143 161 -274 171 -292 11 -18 41 -69 68 -115 27
-46 98 -167 159 -271 78 -134 116 -189 131 -192 12 -2 53 -7 92 -10 39 -3 80
-7 90 -9 11 -2 53 -7 94 -11 41 -4 82 -9 90 -10 8 -2 49 -6 90 -9 41 -4 86 -9
100 -11 14 -3 54 -7 90 -10 36 -3 72 -8 80 -10 8 -2 50 -6 94 -10 64 -5 77 -4
70 7 -4 7 -91 132 -194 278 -102 146 -193 276 -202 290 -10 14 -32 45 -49 70
-18 25 -51 72 -74 105 -23 33 -86 123 -140 200 -54 77 -121 172 -147 210 -103
148 -179 256 -294 420 -65 94 -127 181 -136 195 -10 14 -55 78 -100 142 -46
65 -101 143 -123 175 -22 32 -89 128 -149 213 -60 85 -130 184 -155 220 -24
36 -86 124 -136 195 -50 72 -111 159 -136 195 -25 36 -82 116 -126 179 l-81
115 77 54 c42 30 111 82 154 115 42 33 79 58 80 56 12 -16 84 -106 92 -115 6
-6 24 -28 40 -49 17 -21 115 -145 218 -274 104 -130 201 -251 215 -270 40 -50
921 -1154 935 -1171 7 -8 39 -49 72 -90 33 -41 65 -82 72 -90 19 -24 159 -199
206 -259 23 -29 58 -72 77 -95 19 -23 46 -57 60 -76 14 -18 30 -38 35 -44 6
-6 35 -42 65 -81 66 -84 82 -104 95 -119 6 -6 26 -31 45 -56 19 -25 42 -54 52
-65 9 -11 54 -67 99 -125 102 -128 94 -119 125 -155 14 -16 50 -61 80 -100
105 -136 89 -125 190 -130 49 -3 123 -7 164 -10 41 -3 113 -8 160 -10 47 -3
119 -7 160 -10 41 -3 116 -7 165 -10 50 -3 126 -8 170 -10 44 -3 118 -7 165
-10 47 -3 114 -7 150 -10 36 -2 116 -6 178 -10 l114 -7 -6 73 c-3 41 -8 121
-11 179 -7 129 -13 248 -20 360 -6 104 -16 292 -20 380 -2 36 -7 128 -10 205
-4 77 -9 147 -10 155 -2 8 -4 49 -4 91 l-1 77 -186 148 c-212 170 -261 209
-289 232 -52 43 -84 69 -111 89 -34 26 -541 430 -599 478 -22 18 -112 90 -200
160 -88 70 -180 144 -204 164 -24 20 -54 43 -65 51 -12 8 -32 24 -46 36 -14
12 -176 142 -360 289 -184 146 -344 274 -355 283 -11 9 -230 185 -487 390
l-467 373 48 62 c27 34 78 103 113 154 l65 91 126 -91 c70 -51 231 -166 357
-257 127 -91 239 -171 248 -178 9 -7 157 -113 327 -235 171 -122 321 -230 335
-240 14 -10 88 -64 165 -119 171 -121 177 -125 228 -164 23 -17 107 -77 187
-134 80 -57 309 -221 510 -365 528 -379 601 -431 645 -463 61 -44 63 -45 59
-14 -10 94 -16 153 -20 197 -2 28 -6 66 -8 85 -3 19 -7 69 -11 110 -4 41 -9
86 -11 100 -2 14 -6 54 -9 90 -3 36 -7 79 -10 95 -2 17 -7 64 -11 105 -4 41
-8 82 -10 90 -1 8 -3 18 -3 22 -1 3 -26 21 -57 40 -31 18 -63 38 -72 43 -10 6
-98 59 -197 118 -99 60 -189 114 -200 120 -11 7 -39 24 -62 40 -23 15 -43 27
-46 27 -2 0 -55 31 -118 69 -440 266 -1179 710 -1214 731 -24 14 -237 141
-473 284 l-430 259 78 156 c92 183 115 234 181 399 50 126 141 390 154 450 6
29 10 33 28 28 12 -4 108 -28 212 -56 105 -27 217 -56 250 -65 66 -17 255 -67
440 -115 130 -34 240 -62 520 -135 365 -95 711 -185 745 -195 19 -5 123 -32
230 -60 107 -27 218 -56 245 -64 28 -8 151 -40 275 -71 124 -31 235 -61 248
-66 13 -5 33 -9 45 -9 14 0 107 68 247 180 124 99 234 188 245 198 11 10 38
31 60 47 22 17 47 37 55 45 8 8 39 33 68 55 28 21 52 42 52 45 0 5 -106 27
-215 45 -16 2 -79 14 -140 25 -60 11 -126 23 -145 26 -61 10 -475 82 -501 88
-13 3 -37 7 -54 10 -42 6 -429 73 -550 96 -55 10 -120 22 -145 25 -25 4 -54 9
-65 11 -58 11 -253 46 -275 49 -14 2 -74 13 -135 24 -60 11 -126 22 -145 26
-19 3 -82 14 -140 25 -58 10 -123 21 -144 25 -21 3 -48 7 -60 10 -12 3 -34 7
-51 10 -16 3 -82 14 -145 25 -63 11 -128 22 -145 25 -27 5 -79 14 -113 21 -8
1 -46 8 -85 14 -40 7 -81 14 -92 16 -11 3 -35 7 -54 10 -18 3 -43 8 -55 10
-20 4 -298 52 -344 59 -46 8 -63 17 -58 31 3 8 15 85 27 172 22 162 29 189 49
184 7 -1 42 -5 80 -8 37 -2 77 -6 88 -9 12 -2 52 -7 89 -10 37 -4 79 -8 93
-10 87 -12 111 -15 165 -20 82 -8 143 -15 185 -20 19 -2 60 -7 90 -10 30 -3
71 -8 90 -10 19 -3 60 -7 90 -10 30 -3 71 -7 90 -10 83 -11 129 -16 273 -30
28 -3 68 -7 87 -10 19 -2 58 -7 85 -10 28 -3 64 -7 80 -9 17 -2 59 -7 95 -10
120 -13 165 -18 170 -21 3 -1 46 -6 95 -10 50 -4 92 -8 95 -10 3 -2 41 -6 85
-9 44 -4 87 -9 95 -11 8 -2 45 -6 82 -10 37 -3 77 -8 90 -10 13 -2 53 -6 90
-10 37 -3 77 -8 90 -10 13 -2 53 -6 90 -10 37 -3 77 -8 90 -10 13 -2 54 -6 91
-10 37 -3 76 -8 86 -10 9 -2 50 -6 90 -10 40 -3 80 -8 89 -10 9 -1 51 -6 92
-10 41 -4 82 -9 91 -10 8 -2 42 -6 75 -9 32 -4 97 -11 144 -16 47 -5 114 -12
150 -15 36 -4 72 -8 80 -10 8 -2 47 -7 85 -10 39 -4 80 -8 91 -10 38 -6 158
-19 270 -30 53 -6 74 -4 85 6 8 8 50 46 94 84 44 39 95 84 115 101 19 17 82
73 140 124 58 51 138 123 179 159 41 36 83 74 95 84 61 53 329 290 336 297 3
3 40 36 83 75 64 56 76 71 64 80 -8 6 -54 47 -103 91 -49 44 -116 105 -149
134 -64 57 -200 179 -245 220 -15 14 -56 50 -90 80 -74 66 -85 75 -182 163
-42 37 -85 76 -95 85 -20 17 -155 139 -222 200 -38 35 -34 35 -161 17 -14 -2
-56 -6 -95 -10 -38 -3 -83 -8 -100 -10 -56 -7 -120 -15 -165 -19 -25 -3 -65
-8 -90 -10 -25 -3 -70 -8 -100 -11 -30 -3 -73 -8 -95 -11 -91 -10 -125 -14
-220 -24 -55 -6 -116 -13 -135 -15 -19 -2 -57 -7 -85 -10 -27 -2 -70 -7 -95
-11 -25 -3 -65 -7 -90 -10 -25 -2 -61 -6 -80 -9 -34 -4 -104 -12 -187 -21 -24
-2 -62 -6 -85 -8 -24 -3 -68 -8 -98 -11 -30 -4 -66 -8 -80 -10 -14 -1 -54 -6
-90 -10 -36 -4 -76 -9 -90 -10 -44 -4 -175 -19 -180 -20 -3 -1 -39 -5 -80 -9
-41 -4 -109 -11 -150 -16 -41 -5 -100 -12 -130 -15 -30 -3 -71 -8 -90 -10 -19
-2 -62 -7 -95 -10 -33 -3 -96 -10 -140 -16 -132 -16 -147 -18 -210 -24 -75 -7
-140 -14 -185 -21 -19 -2 -60 -7 -90 -10 -30 -2 -66 -6 -80 -9 -14 -2 -58 -7
-98 -10 -41 -4 -81 -8 -90 -10 -16 -2 -90 -11 -172 -20 -89 -9 -158 -17 -185
-20 -16 -2 -57 -6 -90 -10 -33 -3 -72 -8 -86 -11 -26 -4 -27 -2 -33 54 -4 31
-16 115 -28 185 -11 70 -19 130 -17 132 4 3 81 17 339 60 98 17 409 68 425 70
11 2 36 6 55 9 19 4 49 8 65 10 17 2 59 9 95 16 36 7 77 14 93 16 54 8 83 12
112 18 17 3 62 10 100 16 99 15 101 16 295 49 96 16 193 32 215 36 22 3 51 8
65 10 47 8 405 67 435 71 17 3 41 7 53 10 13 3 43 7 65 10 23 3 65 9 92 14 72
14 115 21 155 26 19 2 58 8 85 14 46 8 72 13 160 26 17 3 53 9 80 14 28 5 68
12 90 15 55 8 95 14 125 20 14 3 41 7 60 10 19 3 45 7 57 9 11 3 43 8 70 12
26 3 57 8 68 11 11 2 34 6 50 8 44 7 81 13 175 29 47 8 105 18 129 21 25 3 47
8 50 10 6 6 6 6 -298 253 -124 101 -237 194 -251 205 -14 12 -41 34 -60 49
-19 14 -50 39 -68 55 l-33 29 -332 -83 c-183 -46 -341 -85 -352 -87 -11 -2
-38 -9 -60 -15 -34 -9 -1141 -286 -1185 -296 -8 -2 -109 -27 -225 -55 -115
-29 -221 -54 -234 -57 -14 -2 -28 -6 -33 -9 -4 -3 -16 -7 -27 -9 -10 -2 -157
-38 -327 -80 -373 -93 -325 -81 -407 -101 -38 -9 -70 -14 -71 -12 -2 1 -21 59
-43 128 -82 255 -163 451 -290 705 -47 94 -89 175 -94 181 -7 8 90 70 328 209
186 108 355 208 375 221 21 13 42 24 48 24 5 0 10 5 10 10 0 6 5 10 11 10 5 0
72 37 147 82 75 44 151 89 167 98 81 46 985 576 1015 595 19 12 203 120 408
240 204 119 373 222 374 228 0 7 2 17 3 22 1 6 5 44 9 85 5 41 10 82 11 90 2
8 6 47 9 85 4 39 8 81 11 95 2 14 7 54 10 90 4 36 8 79 10 95 2 17 7 61 10 99
4 38 8 78 10 88 2 10 7 51 10 90 6 70 6 71 -14 57 -11 -8 -51 -35 -88 -61 -37
-26 -95 -66 -128 -89 -33 -23 -88 -62 -123 -86 -34 -24 -93 -65 -130 -91 -37
-27 -96 -68 -132 -93 -307 -214 -913 -638 -945 -661 -32 -23 -476 -335 -585
-410 -14 -10 -68 -48 -122 -85 -53 -37 -152 -107 -220 -154 -125 -88 -483
-339 -638 -448 -84 -59 -84 -59 -99 -38 -8 12 -59 82 -114 155 -55 73 -98 134
-96 136 42 32 179 141 194 154 11 10 38 31 60 48 22 16 51 39 65 50 14 12 345
277 735 589 391 311 723 577 739 591 16 13 43 34 59 46 26 20 555 442 632 504
49 39 81 64 275 219 102 81 194 155 205 164 11 9 104 83 208 165 131 104 187
156 188 170 1 29 6 105 13 211 11 172 15 241 21 340 3 55 7 129 10 165 5 76
12 195 20 335 3 55 7 127 10 160 2 33 7 111 11 173 l6 113 -74 -5 c-40 -3
-122 -8 -183 -11 -60 -3 -141 -8 -180 -10 -38 -2 -124 -7 -190 -10 -66 -4
-149 -8 -185 -10 -36 -3 -114 -7 -175 -10 -60 -3 -141 -8 -180 -10 -38 -2
-128 -7 -200 -10 -71 -4 -137 -8 -146 -11 -8 -2 -82 -89 -164 -192 -82 -103
-152 -189 -155 -192 -3 -3 -21 -25 -40 -50 -19 -25 -43 -54 -52 -65 -9 -11
-109 -137 -223 -280 -114 -143 -222 -278 -240 -300 -17 -22 -296 -371 -619
-775 -323 -404 -595 -744 -604 -755 -9 -11 -114 -142 -232 -290 -118 -149
-219 -275 -225 -281 -5 -6 -22 -26 -36 -45 -15 -19 -45 -58 -68 -87 l-42 -52
-67 53 c-37 29 -106 80 -153 113 l-86 60 169 234 c93 129 177 246 186 260 9
14 93 131 186 260 93 129 185 258 205 286 20 28 107 149 193 270 87 120 226
314 308 429 83 116 158 219 166 230 8 11 118 164 244 340 127 176 305 425 397
554 256 355 242 335 217 327 -11 -3 -55 -8 -99 -11 -44 -4 -91 -8 -105 -10
-14 -2 -54 -7 -90 -10 -36 -3 -103 -10 -150 -15 -47 -5 -112 -12 -145 -15 -33
-3 -74 -7 -90 -10 -17 -2 -64 -7 -105 -10 -41 -3 -84 -8 -95 -10 -11 -2 -23
-4 -26 -4 -6 -1 -70 -103 -104 -163 -5 -10 -87 -145 -180 -301 -94 -155 -458
-760 -809 -1344 l-638 -1061 -167 83 c-258 130 -529 239 -759 306 -102 30
-113 35 -107 54 3 11 26 99 51 195 25 96 52 198 60 226 8 28 16 60 18 71 2 10
38 149 80 309 133 507 308 1178 311 1194 5 23 104 401 115 440 12 40 120 457
125 480 2 8 13 51 25 95 12 44 28 104 35 133 7 29 15 56 19 59 9 9 -14 41
-168 232 -78 95 -159 197 -181 225 -22 29 -53 68 -70 87 -16 19 -41 50 -55 68
-14 19 -33 43 -43 55 -11 11 -27 32 -37 46 -21 29 -26 26 -33 -15 -3 -16 -10
-59 -16 -95 -7 -36 -14 -74 -16 -85 -1 -11 -12 -72 -24 -135 -11 -63 -23 -131
-26 -150 -3 -19 -8 -48 -12 -65 -3 -16 -7 -40 -9 -52 -1 -12 -5 -34 -8 -50 -4
-15 -8 -41 -11 -58 -2 -16 -9 -55 -15 -85 -6 -30 -13 -71 -16 -90 -5 -33 -8
-54 -19 -110 -5 -26 -8 -43 -26 -145 -15 -87 -18 -104 -29 -165 -5 -30 -12
-71 -15 -90 -3 -19 -20 -111 -36 -205 -17 -93 -33 -183 -35 -199 -2 -15 -6
-35 -8 -45 -3 -9 -8 -38 -12 -66 -3 -27 -8 -52 -9 -55 -2 -3 -6 -26 -10 -50
-3 -25 -8 -52 -10 -60 -2 -8 -6 -28 -9 -45 -3 -16 -15 -84 -26 -150 -12 -66
-23 -131 -25 -145 -6 -37 -53 -300 -59 -335 -4 -16 -9 -46 -12 -65 -3 -19 -7
-46 -10 -60 -2 -14 -13 -74 -24 -135 -10 -60 -22 -121 -24 -135 -3 -13 -8 -40
-11 -60 -3 -20 -7 -47 -10 -60 -3 -13 -11 -63 -20 -110 -8 -47 -17 -96 -19
-110 -3 -14 -16 -92 -31 -175 -28 -166 -33 -187 -43 -181 -4 2 -79 13 -167 25
-194 27 -207 29 -201 39 3 5 8 44 11 88 4 43 8 81 10 84 2 3 6 43 10 90 4 47
9 93 11 103 2 10 6 46 9 80 3 34 8 73 10 87 2 14 7 52 10 85 3 33 8 77 10 98
9 71 14 112 19 162 10 97 27 250 31 275 2 14 7 59 10 100 4 41 8 77 10 80 2 3
6 43 10 90 4 47 8 92 10 100 2 8 6 44 10 80 4 36 8 72 10 80 2 8 6 53 10 100
4 47 8 87 10 90 2 3 6 40 9 82 4 42 9 85 10 95 2 10 7 52 11 93 4 41 9 83 10
92 2 9 6 43 10 75 6 58 12 118 20 183 3 19 7 60 10 90 3 30 7 71 10 90 3 19 7
60 10 90 3 30 8 71 10 90 2 19 7 60 10 90 3 30 10 93 15 140 6 47 13 108 16
135 2 28 7 66 9 85 3 19 7 58 10 85 3 28 10 86 15 130 5 44 12 109 16 145 3
36 8 73 9 82 2 9 7 48 10 85 4 37 8 79 10 93 2 14 7 54 11 90 3 36 8 76 9 90
16 132 17 170 4 183 -8 7 -43 47 -79 87 -36 40 -70 78 -75 84 -6 6 -93 106
-195 221 -102 116 -189 215 -195 221 -5 6 -37 42 -71 80 -224 253 -377 424
-380 424 -1 0 -7 -6 -11 -14z"/>
</g>
</svg>
